<?xml version="1.0" encoding="UTF-8" standalone="no"?>
<svg
   xmlns:dc="http://purl.org/dc/elements/1.1/"
   xmlns:cc="http://creativecommons.org/ns#"
   xmlns:rdf="http://www.w3.org/1999/02/22-rdf-syntax-ns#"
   xmlns:svg="http://www.w3.org/2000/svg"
   xmlns="http://www.w3.org/2000/svg"
   xmlns:sodipodi="http://sodipodi.sourceforge.net/DTD/sodipodi-0.dtd"
   xmlns:inkscape="http://www.inkscape.org/namespaces/inkscape"
   inkscape:version="1.0 (4035a4fb49, 2020-05-01)"
   sodipodi:docname="projects_icon.svg"
   id="svg8"
   version="1.1"
   viewBox="0 0 29.104166 29.104168"
   height="110"
   width="110">
  <defs
     id="defs2" />
  <sodipodi:namedview
     showguides="true"
     inkscape:snap-global="false"
     inkscape:window-maximized="1"
     inkscape:window-y="-8"
     inkscape:window-x="-8"
     inkscape:window-height="1017"
     inkscape:window-width="1920"
     showgrid="false"
     inkscape:document-rotation="0"
     inkscape:current-layer="layer1"
     inkscape:document-units="mm"
     inkscape:cy="42.384941"
     inkscape:cx="247.62083"
     inkscape:zoom="1.0225704"
     inkscape:pageshadow="2"
     inkscape:pageopacity="0.0"
     borderopacity="1.0"
     bordercolor="#666666"
     pagecolor="#ffffff"
     id="base"
     units="px">
    <inkscape:grid
       id="grid833"
       type="xygrid" />
  </sodipodi:namedview>
  <metadata
     id="metadata5">
    <rdf:RDF>
      <cc:Work
         rdf:about="">
        <dc:format>image/svg+xml</dc:format>
        <dc:type
           rdf:resource="http://purl.org/dc/dcmitype/StillImage" />
        <dc:title></dc:title>
      </cc:Work>
    </rdf:RDF>
  </metadata>
  <g
     id="layer1"
     inkscape:groupmode="layer"
     inkscape:label="Layer 1">
    <g
       id="g1315"
       transform="matrix(0.32825796,0,0,0.33192756,2.1015642,5.7087382)">
      <path
         style="fill:#dedbe3;fill-opacity:1;stroke:none;stroke-width:0.264583px;stroke-linecap:butt;stroke-linejoin:miter;stroke-opacity:1"
         d="m 53.56334,14.38764 c 0.528181,1.69355 1.363687,7.09229 1.049793,11.14974 7.929504,-0.0346 15.102278,-0.009 23.584934,-0.11763 C 78.573349,19.02573 75.582577,10.98824 73.341368,7.43 65.185998,11.33206 58.574005,13.5939 53.56334,14.38764 Z"
         id="path1070"
         sodipodi:nodetypes="ccccc" />
      <path
         sodipodi:nodetypes="ccccc"
         id="path1070-81"
         d="m 39.05872,16.12073 c -0.0534,2.0813 -0.0568,5.09971 0.0171,9.28641 7.9295,-0.0346 4.96239,0.091 13.445046,-0.0175 0.05216,-4.71378 -0.299397,-7.42789 -1.049366,-10.45603 -3.11467,0.60621 -7.025,1.2024 -12.41275,1.18711 z"
         style="fill:#dedbe3;fill-opacity:1;stroke:none;stroke-width:0.264583px;stroke-linecap:butt;stroke-linejoin:miter;stroke-opacity:1" />
      <path
         sodipodi:nodetypes="cccc"
         id="path1070-0"
         d="M 39.32768,-13.21303 C 47.27416,-11.91524 50.2494,1.82717 53.178377,12.25604 59.572397,12.63132 68.787772,7.67741 72.346012,5.4362 67.560538,-3.94613 53.667088,-13.25744 39.32768,-13.21303 Z"
         style="fill:#dedbe3;fill-opacity:1;stroke:none;stroke-width:0.264583px;stroke-linecap:butt;stroke-linejoin:miter;stroke-opacity:1" />
      <path
         sodipodi:nodetypes="cccc"
         id="path1070-3"
         d="m 38.92614,-11.47613 c 0.0346,7.9295 0.009,17.1145 0.11763,25.59715 2.22235,0.0317 6.57895,-0.21065 12.05125,-1.32305 -2.41517,-13.43184 -7.24237,-24.23903 -12.16888,-24.2741 z"
         style="fill:#dedbe3;fill-opacity:1;stroke:none;stroke-width:0.264583px;stroke-linecap:butt;stroke-linejoin:miter;stroke-opacity:1" />
      <path
         sodipodi:nodetypes="ccccc"
         id="path1070-1"
         d="m 53.56334,38.89715 c 0.528181,-1.69355 1.363687,-7.09229 1.049793,-11.14974 7.929504,0.0346 15.102278,0.009 23.584934,0.11763 0.375282,6.39402 -2.61549,14.43151 -4.856699,17.98975 -8.15537,-3.90206 -14.767363,-6.1639 -19.778028,-6.95764 z"
         style="fill:#dedbe3;fill-opacity:1;stroke:none;stroke-width:0.264583px;stroke-linecap:butt;stroke-linejoin:miter;stroke-opacity:1" />
      <path
         style="fill:#dedbe3;fill-opacity:1;stroke:none;stroke-width:0.264583px;stroke-linecap:butt;stroke-linejoin:miter;stroke-opacity:1"
         d="m 39.05872,37.16406 c -0.0534,-2.0813 -0.0568,-5.09971 0.0171,-9.28641 7.9295,0.0346 4.96239,-0.091 13.445046,0.0175 0.05216,4.71378 -0.299397,7.42789 -1.049366,10.45603 -3.11467,-0.60621 -7.025,-1.2024 -12.41275,-1.18711 z"
         id="path1070-81-6"
         sodipodi:nodetypes="ccccc" />
      <path
         style="fill:#dedbe3;fill-opacity:1;stroke:none;stroke-width:0.264583px;stroke-linecap:butt;stroke-linejoin:miter;stroke-opacity:1"
         d="m 39.32768,66.49782 c 7.94648,-1.29779 10.92172,-15.0402 13.850697,-25.46907 6.39402,-0.37528 15.609395,4.57863 19.167635,6.81984 -4.785474,9.38233 -18.678924,18.69364 -33.018332,18.64923 z"
         id="path1070-0-4"
         sodipodi:nodetypes="cccc" />
      <path
         style="fill:#dedbe3;fill-opacity:1;stroke:none;stroke-width:0.264583px;stroke-linecap:butt;stroke-linejoin:miter;stroke-opacity:1"
         d="m 38.92614,64.76092 c 0.0346,-7.9295 0.009,-17.1145 0.11763,-25.59715 2.22235,-0.0317 6.57895,0.21065 12.05125,1.32305 -2.41517,13.43184 -7.24237,24.23903 -12.16888,24.2741 z"
         id="path1070-3-8"
         sodipodi:nodetypes="cccc" />
      <path
         sodipodi:nodetypes="ccccc"
         id="path1070-32"
         d="M 22.29481,14.38764 C 21.766629,16.08119 20.931123,21.47993 21.245017,25.53738 13.315513,25.50278 6.142739,25.52838 -2.339917,25.41975 -2.715199,19.02573 0.275573,10.98824 2.516782,7.43 c 8.15537,3.90206 14.767363,6.1639 19.778028,6.95764 z"
         style="fill:#dedbe3;fill-opacity:1;stroke:none;stroke-width:0.264583px;stroke-linecap:butt;stroke-linejoin:miter;stroke-opacity:1" />
      <path
         style="fill:#dedbe3;fill-opacity:1;stroke:none;stroke-width:0.264583px;stroke-linecap:butt;stroke-linejoin:miter;stroke-opacity:1"
         d="m 36.79943,16.12073 c 0.0534,2.0813 0.0568,5.09971 -0.0171,9.28641 -7.9295,-0.0346 -4.96239,0.091 -13.445046,-0.0175 -0.05216,-4.71378 0.299397,-7.42789 1.049366,-10.45603 3.11467,0.60621 7.025,1.2024 12.41275,1.18711 z"
         id="path1070-81-0"
         sodipodi:nodetypes="ccccc" />
      <path
         style="fill:#dedbe3;fill-opacity:1;stroke:none;stroke-width:0.264583px;stroke-linecap:butt;stroke-linejoin:miter;stroke-opacity:1"
         d="M 36.53047,-13.21303 C 28.58399,-11.91524 25.60875,1.82717 22.679773,12.25604 16.285753,12.63132 7.070378,7.67741 3.512138,5.4362 8.297612,-3.94613 22.191062,-13.25744 36.53047,-13.21303 Z"
         id="path1070-0-2"
         sodipodi:nodetypes="cccc" />
      <path
         style="fill:#dedbe3;fill-opacity:1;stroke:none;stroke-width:0.264583px;stroke-linecap:butt;stroke-linejoin:miter;stroke-opacity:1"
         d="m 36.93201,-11.47613 c -0.0346,7.9295 -0.009,17.1145 -0.11763,25.59715 -2.22235,0.0317 -6.57895,-0.21065 -12.05125,-1.32305 2.41517,-13.43184 7.24237,-24.23903 12.16888,-24.2741 z"
         id="path1070-3-1"
         sodipodi:nodetypes="cccc" />
      <path
         sodipodi:nodetypes="ccccc"
         id="path1070-2"
         d="m 22.2948,38.89715 c -0.528181,-1.69355 -1.363687,-7.09229 -1.049793,-11.14974 -7.929504,0.0346 -15.102278,0.009 -23.584934,0.11763 -0.375282,6.39402 2.61549,14.43151 4.856699,17.98975 8.15537,-3.90206 14.767363,-6.1639 19.778028,-6.95764 z"
         style="fill:#dedbe3;fill-opacity:1;stroke:none;stroke-width:0.264583px;stroke-linecap:butt;stroke-linejoin:miter;stroke-opacity:1" />
      <path
         style="fill:#dedbe3;fill-opacity:1;stroke:none;stroke-width:0.264583px;stroke-linecap:butt;stroke-linejoin:miter;stroke-opacity:1"
         d="m 36.79942,37.16406 c 0.0534,-2.0813 0.0568,-5.09971 -0.0171,-9.28641 -7.9295,0.0346 -4.96239,-0.091 -13.445046,0.0175 -0.05216,4.71378 0.299397,7.42789 1.049366,10.45603 3.11467,-0.60621 7.025,-1.2024 12.41275,-1.18711 z"
         id="path1070-81-1"
         sodipodi:nodetypes="ccccc" />
      <path
         style="fill:#dedbe3;fill-opacity:1;stroke:none;stroke-width:0.264583px;stroke-linecap:butt;stroke-linejoin:miter;stroke-opacity:1"
         d="M 36.53046,66.49782 C 28.58398,65.20003 25.60874,51.45762 22.679763,41.02875 16.285743,40.65347 7.070368,45.60738 3.512128,47.84859 8.297602,57.23092 22.191052,66.54223 36.53046,66.49782 Z"
         id="path1070-0-7"
         sodipodi:nodetypes="cccc" />
      <path
         style="fill:#dedbe3;fill-opacity:1;stroke:none;stroke-width:0.264583px;stroke-linecap:butt;stroke-linejoin:miter;stroke-opacity:1"
         d="m 36.932,64.76092 c -0.0346,-7.9295 -0.009,-17.1145 -0.11763,-25.59715 -2.22235,-0.0317 -6.57895,0.21065 -12.05125,1.32305 2.41517,13.43184 7.24237,24.23903 12.16888,24.2741 z"
         id="path1070-3-3"
         sodipodi:nodetypes="cccc" />
    </g>
  </g>
</svg>
